<!--?xml version="1.0" encoding="utf-8"?-->
<!-- Generator: Adobe Illustrator 15.1.0, SVG Export Plug-In . SVG Version: 6.00 Build 0)  -->

<svg version="1.1" id="_x32_" xmlns="http://www.w3.org/2000/svg" xmlns:xlink="http://www.w3.org/1999/xlink" x="0px" y="0px" width="512px" height="512px" viewBox="0 0 512 512" style="width: 256px; height: 256px; opacity: 1;" xml:space="preserve">
<style type="text/css">

	.st0{fill:#4B4B4B;}

</style>
<g>
	<path class="st0" d="M380.594,0H131.406c-25.453,0-46.078,20.625-46.078,46.063v428c0,25.438,20.625,37.938,46.078,37.938h249.188
		c25.438,0,46.078-12.5,46.078-37.938v-428C426.672,20.625,406.031,0,380.594,0z M402.281,474.063
		c0,11.953-9.734,21.688-21.688,21.688H131.406c-11.969,0-21.688-9.734-21.688-21.688v-428c0-11.953,9.719-21.688,21.688-21.688
		h249.188c11.953,0,21.688,9.734,21.688,21.688V474.063z" style="fill: rgb(75, 75, 75);"></path>
	<rect x="142.219" y="349.469" class="st0" width="32.516" height="32.5" style="fill: rgb(75, 75, 75);"></rect>
	<rect x="142.219" y="414.469" class="st0" width="32.516" height="32.516" style="fill: rgb(75, 75, 75);"></rect>
	<rect x="142.219" y="284.438" class="st0" width="32.516" height="32.516" style="fill: rgb(75, 75, 75);"></rect>
	<rect x="142.219" y="219.438" class="st0" width="32.516" height="32.5" style="fill: rgb(75, 75, 75);"></rect>
	<rect x="207.234" y="349.469" class="st0" width="32.516" height="32.5" style="fill: rgb(75, 75, 75);"></rect>
	<rect x="207.234" y="414.469" class="st0" width="32.516" height="32.516" style="fill: rgb(75, 75, 75);"></rect>
	<rect x="207.234" y="284.438" class="st0" width="32.516" height="32.516" style="fill: rgb(75, 75, 75);"></rect>
	<rect x="207.234" y="219.438" class="st0" width="32.516" height="32.5" style="fill: rgb(75, 75, 75);"></rect>
	<rect x="272.25" y="349.469" class="st0" width="32.516" height="32.5" style="fill: rgb(75, 75, 75);"></rect>
	<rect x="272.25" y="414.469" class="st0" width="32.516" height="32.516" style="fill: rgb(75, 75, 75);"></rect>
	<rect x="272.25" y="284.438" class="st0" width="32.516" height="32.516" style="fill: rgb(75, 75, 75);"></rect>
	<rect x="272.25" y="219.438" class="st0" width="32.516" height="32.5" style="fill: rgb(75, 75, 75);"></rect>
	<rect x="337.266" y="349.469" class="st0" width="32.516" height="97.516" style="fill: rgb(75, 75, 75);"></rect>
	<rect x="337.266" y="284.438" class="st0" width="32.516" height="32.516" style="fill: rgb(75, 75, 75);"></rect>
	<rect x="337.266" y="219.438" class="st0" width="32.516" height="32.5" style="fill: rgb(75, 75, 75);"></rect>
	<rect x="142.219" y="73.141" class="st0" width="227.563" height="89.391" style="fill: rgb(75, 75, 75);"></rect>
</g>
</svg>
